<?xml version="1.0" encoding="utf-8"?>
<!-- Generator: Adobe Illustrator 24.3.0, SVG Export Plug-In . SVG Version: 6.00 Build 0)  -->
<svg version="1.1" id="Layer_1" xmlns="http://www.w3.org/2000/svg" xmlns:xlink="http://www.w3.org/1999/xlink" x="0px" y="0px"
	 viewBox="0 0 388 105" style="enable-background:new 0 0 388 105;" xml:space="preserve">
<style type="text/css">
	.st0{fill:#D82522;}
	.st1{fill:#FFFFFF;}
</style>
<g>
	<path class="st0" d="M98.7,10.1v56.2c0,2.9-2.4,5.3-5.3,5.3h-15V58.4h7V18H45.3v40.4h7.9v13.2H37.4c-2.9,0-5.3-2.4-5.3-5.3V10.1
		c0-2.9,2.4-5.3,5.3-5.3h56C96.4,4.8,98.7,7.2,98.7,10.1"/>
	<path class="st1" d="M5.9,92.6V36.4c0-2.9,2.4-5.3,5.3-5.3h15v13.2h-7v40.4h40.2V44.3h-7.9V31.1h15.8c2.9,0,5.3,2.4,5.3,5.3v56.2
		c0,2.9-2.4,5.3-5.3,5.3h-56C8.3,97.9,5.9,95.5,5.9,92.6"/>
	<path class="st1" d="M374.6,91.5v3.6h-1.2v-3.6l-4-6.8h1.2l3.4,5.4l3.3-5.4h1.2L374.6,91.5z M364.1,90h1v3.8
		c-1,0.8-2.5,1.3-3.8,1.3c-3,0-5.4-2.3-5.4-5.2c0-2.9,2.4-5.2,5.5-5.2c1.4,0,2.8,0.5,3.8,1.4l-0.7,0.9c-0.8-0.8-2-1.2-3.1-1.2
		c-2.4,0-4.3,1.8-4.3,4.1c0,2.3,1.9,4.1,4.3,4.1c0.9,0,1.9-0.3,2.7-0.9V90z M342.4,89.9c0,2.3,1.9,4.1,4.2,4.1
		c2.3,0,4.2-1.8,4.2-4.1c0-2.3-1.9-4.1-4.2-4.1C344.4,85.8,342.4,87.6,342.4,89.9 M352.1,89.9c0,2.9-2.4,5.2-5.4,5.2
		c-3,0-5.4-2.3-5.4-5.2c0-2.9,2.4-5.2,5.4-5.2C349.7,84.7,352.1,87,352.1,89.9 M332.8,84.7V94h4.5v1.1h-5.7V84.7H332.8z M316.9,89.9
		c0,2.3,1.9,4.1,4.2,4.1c2.3,0,4.2-1.8,4.2-4.1c0-2.3-1.9-4.1-4.2-4.1C318.8,85.8,316.9,87.6,316.9,89.9 M326.6,89.9
		c0,2.9-2.4,5.2-5.4,5.2c-3,0-5.4-2.3-5.4-5.2c0-2.9,2.4-5.2,5.4-5.2C324.2,84.7,326.6,87,326.6,89.9 M303.3,84.7l6.2,8.4v-8.4h1.2
		v10.3h-1.2l-6.2-8.4v8.4H302V84.7H303.3z M288.6,84.7v4.7h6.2v-4.7h1.2v10.3h-1.2v-4.6h-6.2v4.6h-1.2V84.7H288.6z M278.5,85.8
		c-2.3,0-4.2,1.8-4.2,4.1c0,2.3,1.9,4.1,4.2,4.1c1.1,0,2.2-0.5,3.1-1.2l0.7,0.8c-1,1-2.4,1.6-3.8,1.6c-3,0-5.3-2.3-5.3-5.2
		c0-2.9,2.4-5.2,5.4-5.2c1.4,0,2.8,0.6,3.8,1.5l-0.7,0.9C280.8,86.3,279.7,85.8,278.5,85.8 M268.6,84.7v1.1h-5.8v3.5h5.2v1.1h-5.2
		V94h6v1.1h-7.2V84.7H268.6z M256.9,84.7v1.1h-3.4v9.3h-1.2v-9.3H249v-1.1H256.9z M236.2,90h1v3.8c-1,0.8-2.5,1.3-3.8,1.3
		c-3,0-5.4-2.3-5.4-5.2c0-2.9,2.4-5.2,5.5-5.2c1.4,0,2.8,0.5,3.8,1.4l-0.7,0.9c-0.8-0.8-2-1.2-3.1-1.2c-2.4,0-4.3,1.8-4.3,4.1
		c0,2.3,1.9,4.1,4.3,4.1c0.9,0,1.9-0.3,2.7-0.9V90z M215.5,84.7l6.2,8.4v-8.4h1.2v10.3h-1.2l-6.2-8.4v8.4h-1.2V84.7H215.5z
		 M208.2,95.1H207V84.7h1.2V95.1z M202.4,84.7v1.1H199v9.3h-1.2v-9.3h-3.4v-1.1H202.4z M191.2,84.7v1.1h-5.4v3.7h4.8v1.1h-4.8v4.5
		h-1.2V84.7H191.2z M178.5,95.1h-1.2V84.7h1.2V95.1z M167.9,84.7V94h4.5v1.1h-5.7V84.7H167.9z M153.8,84.7v1.1H148v3.5h5.2v1.1H148
		V94h6v1.1h-7.2V84.7H153.8z M142.2,84.7v1.1h-5.4v3.7h4.8v1.1h-4.8v4.5h-1.2V84.7H142.2z M128.1,91.3l-2.4-5.3l-2.3,5.3H128.1z
		 M128.6,92.4h-5.6l-1.2,2.6h-1.3l4.6-10.3h1.2l4.6,10.3h-1.3L128.6,92.4z M113.2,85.8c-1.3,0-2.2,0.5-2.2,1.4c0,2.7,5.8,1.3,5.8,5
		c0,1.7-1.5,2.8-3.7,2.8c-1.5,0-3-0.6-4-1.6l0.5-1c1,0.9,2.3,1.4,3.4,1.4c1.5,0,2.4-0.6,2.4-1.6c0-2.8-5.8-1.3-5.8-5
		c0-1.6,1.4-2.7,3.6-2.7c1.2,0,2.4,0.4,3.3,1l-0.5,1C115.1,86.1,114,85.8,113.2,85.8"/>
	<path class="st1" d="M298.4,62.7c0.9,0,2-0.1,3.1-0.4V71c-2.3,0.8-4.6,1.1-7,1.1c-6.1,0-10.8-3.1-10.8-9.1c0-1.1,0.2-2.6,0.7-4.7
		l10.1-43.4l11.8-1l-10.3,43.8c-0.3,1.1-0.4,1.9-0.4,2.8C295.7,62,296.6,62.7,298.4,62.7 M357.1,54.7c0,5.7,3.2,9,9.2,9
		c4,0,7.1-1.2,9.5-2.5l3.1,7.7c-3.1,2-9.2,3.6-14.1,3.6c-13.4,0-19.3-7.7-19.3-16.9c0-12.4,8.7-23.5,24.9-23.5
		c4.3,0,8.6,0.9,11.6,2.2l-2.2,8.7c-3.1-1.4-6-2.2-9.1-2.2C363.5,40.8,357.1,46,357.1,54.7 M321.7,63.7c-4.3,0-7-2.9-7-8.3
		c0-8.5,5.4-14.6,11.3-14.6c4.3,0,7,2.9,7,8.3C333,57.6,327.8,63.7,321.7,63.7 M326.4,32.1c-13.3,0-23.2,10.3-23.2,23.4
		c0,9.9,6.6,16.9,18.3,16.9c13.2,0,23.1-10.3,23.1-23.5C344.6,39.2,337.9,32.1,326.4,32.1 M256,63.4c-0.6,0-2-0.1-2.9-0.3l1.9-8.3
		c1.2-5.1,3.1-8.7,5.4-10.9c1.9-1.9,4.1-2.8,6-2.8c3.4,0,5.1,2.7,5.1,5.7C271.4,55.7,265.2,63.4,256,63.4 M271.2,32.1
		c-4.7,0-9.1,2.1-12.7,6.4h-0.2c0.9-2.7,1.6-4.8,2.3-7.7l3.1-13.2l-11.9,1l-12.1,51.9c4,1.6,10.8,2,13.3,2
		c16.7,0,29.9-10.7,29.9-27.3C282.9,37,277.9,32.1,271.2,32.1 M170.7,41.9c0,1.7-0.3,3.9-1.2,7.9l-5.1,21.7h-11.7l5-21.1
		c0.7-3.1,0.9-4.5,0.9-5.2c0-2.4-1.3-3.7-3.5-3.7c-2.1,0-5.2,1.1-7.9,4.5c-1.2,1.5-2.4,3.5-3.4,6.2l-4.5,19.3H139h-11.6l9-38.5h9
		h2.9l-1.3,5.4c3.3-3.4,7.9-6.3,13.4-6.3C166.8,32.1,170.7,35.3,170.7,41.9 M187.3,58.9c-0.3,0.7-0.3,1.5-0.3,2.1
		c0,1.9,1.1,2.7,3.1,2.7c2.4,0,4.9-1,6.9-2l2.8,7.8c-4,1.8-8.5,2.9-12.9,2.9c-8.5,0-11.7-3.7-11.7-9.1c0-1.5,0.2-3,0.8-5.6l3.8-16.1
		h-7.3l2.1-8.5h7.2l2.2-8.9l11.7-1l-2.3,9.9h11l-3.6,8.5h-9.4L187.3,58.9z M133.4,17.9L121,71.6h-11.9l12.4-53.7H133.4z M224.2,40.3
		c3.3,0,5.3,2,5.3,4.7c0,0.9-0.2,1.9-0.6,2.9l-14.1,0.2C216,43.7,219.8,40.3,224.2,40.3 M238.6,55.1c1.3-3.7,2-7.1,2-10
		c0-7.7-5.4-13-15.3-13c-13.8,0-23,10.7-23,23.6c0,9.6,6.4,16.7,18.8,16.7c4.8,0,10.7-1.1,15.5-3.5l-3.1-7.7
		c-4,1.8-7.3,2.7-11.1,2.7c-4.8,0-8.7-2.4-8.7-7.3v-1.1L238.6,55.1z"/>
</g>
</svg>
